<svg width="25" height="25" viewBox="0 0 25 25" fill="none"
	xmlns="http://www.w3.org/2000/svg">
	<style>
.letters{
	fill: black
}
@media (prefers-color-scheme: dark) {
.letters{
	fill: white
}
}
	</style>
	<path class="letters" d="M1.67334 19V5.49219H5.6626C6.85628 5.49219 7.9139 5.75814 8.83545 6.29004C9.76318 6.82194 10.4806 7.5765 10.9878 8.55371C11.495 9.53092 11.7485 10.6504 11.7485 11.9121V12.5894C11.7485 13.8696 11.4919 14.9953 10.9785 15.9663C10.4714 16.9373 9.74463 17.6857 8.79834 18.2114C7.85824 18.7371 6.77897 19 5.56055 19H1.67334ZM4.02051 7.38477V17.126H5.55127C6.78206 17.126 7.72526 16.7425 8.38086 15.9756C9.04264 15.2025 9.37972 14.0954 9.39209 12.6543V11.9028C9.39209 10.437 9.07357 9.31755 8.43652 8.54443C7.79948 7.77132 6.87484 7.38477 5.6626 7.38477H4.02051ZM14.0864 19V5.49219H18.7158C20.2435 5.49219 21.4062 5.79834 22.2041 6.41064C23.002 7.02295 23.4009 7.93522 23.4009 9.14746C23.4009 9.76595 23.2339 10.3226 22.8999 10.8174C22.5659 11.3122 22.0773 11.6956 21.4341 11.9678C22.1639 12.1657 22.7267 12.5399 23.1226 13.0903C23.5246 13.6346 23.7256 14.2902 23.7256 15.0571C23.7256 16.325 23.3174 17.2992 22.501 17.9795C21.6908 18.6598 20.528 19 19.0127 19H14.0864ZM16.4336 12.9048V17.126H19.0405C19.7765 17.126 20.3517 16.9435 20.7661 16.5786C21.1805 16.2137 21.3877 15.7065 21.3877 15.0571C21.3877 13.6532 20.6702 12.9357 19.2354 12.9048H16.4336ZM16.4336 11.1792H18.7344C19.4642 11.1792 20.0332 11.0153 20.4414 10.6875C20.8558 10.3535 21.063 9.88346 21.063 9.27734C21.063 8.60938 20.8713 8.12695 20.4878 7.83008C20.1105 7.5332 19.5199 7.38477 18.7158 7.38477H16.4336V11.1792Z"/>
</svg>
